HIERARCHY
ROOT Hips
{
    OFFSET   0.000000   0.000000   0.000000
    CHANNELS 6 Xposition Yposition Zposition Zrotation Xrotation Yrotation
    JOINT Chest
    {
        OFFSET   0.000000   8.007230   0.000000
        CHANNELS 3 Zrotation Xrotation Yrotation
        JOINT Chest2
        {
            OFFSET   0.000000  22.077100   0.000000
            CHANNELS 3 Zrotation Xrotation Yrotation
            JOINT Neck
            {
                OFFSET   0.000000  23.254800  -0.000021
                CHANNELS 3 Zrotation Xrotation Yrotation
                JOINT Head
                {
                    OFFSET   0.000000  14.370000   1.956610
                    CHANNELS 3 Zrotation Xrotation Yrotation
                    End Site
                    {
                        OFFSET   0.000000  19.566000   0.000000
                    }
                }
            }
            JOINT LeftCollar
            {
                OFFSET   3.911900  19.017000  -0.467063
                CHANNELS 3 Zrotation Xrotation Yrotation
                JOINT LeftShoulder
                {
                    OFFSET  10.383700   0.000000   0.000000
                    CHANNELS 3 Zrotation Xrotation Yrotation
                    JOINT LeftElbow
                    {
                        OFFSET  26.662100   0.001529   0.000325
                        CHANNELS 3 Zrotation Xrotation Yrotation
                        JOINT LeftWrist
                        {
                            OFFSET  28.869000  -0.000011  -0.000096
                            CHANNELS 3 Zrotation Xrotation Yrotation
                            JOINT LeftFinger0
                            {
                                OFFSET   2.044650  -2.323460   3.252850
                                CHANNELS 3 Zrotation Xrotation Yrotation
                                JOINT LeftFinger01
                                {
                                    OFFSET   3.088130   0.000000   0.000000
                                    CHANNELS 3 Zrotation Xrotation Yrotation
                                    JOINT LeftFinger02
                                    {
                                        OFFSET   2.639460   0.000000   0.000000
                                        CHANNELS 3 Zrotation Xrotation Yrotation
                                        End Site
                                        {
                                            OFFSET   2.582190   0.000000   0.000000
                                        }
                                    }
                                }
                            }
                            JOINT LeftFinger1
                            {
                                OFFSET   8.364480   0.000000   3.252850
                                CHANNELS 3 Zrotation Xrotation Yrotation
                                JOINT LeftFinger11
                                {
                                    OFFSET   4.646930   0.000000   0.000000
                                    CHANNELS 3 Zrotation Xrotation Yrotation
                                    JOINT LeftFinger12
                                    {
                                        OFFSET   2.323460   0.000000   0.000000
                                        CHANNELS 3 Zrotation Xrotation Yrotation
                                        End Site
                                        {
                                            OFFSET   2.273050   0.000000   0.000000
                                        }
                                    }
                                }
                            }
                            JOINT LeftFinger2
                            {
                                OFFSET   8.364480   0.000016   1.078090
                                CHANNELS 3 Zrotation Xrotation Yrotation
                                JOINT LeftFinger21
                                {
                                    OFFSET   5.111620   0.000000   0.000000
                                    CHANNELS 3 Zrotation Xrotation Yrotation
                                    JOINT LeftFinger22
                                    {
                                        OFFSET   2.788160   0.000017   0.000000
                                        CHANNELS 3 Zrotation Xrotation Yrotation
                                        End Site
                                        {
                                            OFFSET   2.727660   0.000000   0.000000
                                        }
                                    }
                                }
                            }
                            JOINT LeftFinger3
                            {
                                OFFSET   7.899780   0.000015  -1.078090
                                CHANNELS 3 Zrotation Xrotation Yrotation
                                JOINT LeftFinger31
                                {
                                    OFFSET   4.646920   0.000000   0.000000
                                    CHANNELS 3 Zrotation Xrotation Yrotation
                                    JOINT LeftFinger32
                                    {
                                        OFFSET   2.323470   0.000000   0.000000
                                        CHANNELS 3 Zrotation Xrotation Yrotation
                                        End Site
                                        {
                                            OFFSET   2.273050   0.000000   0.000000
                                        }
                                    }
                                }
                            }
                            JOINT LeftFinger4
                            {
                                OFFSET   7.435090   0.000000  -3.252850
                                CHANNELS 3 Zrotation Xrotation Yrotation
                                JOINT LeftFinger41
                                {
                                    OFFSET   3.717550   0.000000   0.000000
                                    CHANNELS 3 Zrotation Xrotation Yrotation
                                    JOINT LeftFinger42
                                    {
                                        OFFSET   1.858760   0.000000   0.000000
                                        CHANNELS 3 Zrotation Xrotation Yrotation
                                        End Site
                                        {
                                            OFFSET   1.818440   0.000000   0.000000
                                        }
                                    }
                                }
                            }
                        }
                    }
                }
            }
            JOINT RightCollar
            {
                OFFSET  -3.911900  19.017000  -0.467062
                CHANNELS 3 Zrotation Xrotation Yrotation
                JOINT RightShoulder
                {
                    OFFSET -10.383700   0.000015   0.000000
                    CHANNELS 3 Zrotation Xrotation Yrotation
                    JOINT RightElbow
                    {
                        OFFSET -26.662100   0.001341   0.000385
                        CHANNELS 3 Zrotation Xrotation Yrotation
                        JOINT RightWrist
                        {
                            OFFSET -28.869000   0.000025  -0.000080
                            CHANNELS 3 Zrotation Xrotation Yrotation
                            JOINT RightFinger0
                            {
                                OFFSET  -2.044650  -2.323490   3.252850
                                CHANNELS 3 Zrotation Xrotation Yrotation
                                JOINT RightFinger01
                                {
                                    OFFSET  -3.088130   0.000000   0.000000
                                    CHANNELS 3 Zrotation Xrotation Yrotation
                                    JOINT RightFinger02
                                    {
                                        OFFSET  -2.639460   0.000000   0.000000
                                        CHANNELS 3 Zrotation Xrotation Yrotation
                                        End Site
                                        {
                                            OFFSET  -2.582190   0.000000   0.000000
                                        }
                                    }
                                }
                            }
                            JOINT RightFinger1
                            {
                                OFFSET  -8.364480   0.000000   3.252850
                                CHANNELS 3 Zrotation Xrotation Yrotation
                                JOINT RightFinger11
                                {
                                    OFFSET  -4.646930   0.000000   0.000000
                                    CHANNELS 3 Zrotation Xrotation Yrotation
                                    JOINT RightFinger12
                                    {
                                        OFFSET  -2.323470   0.000000   0.000000
                                        CHANNELS 3 Zrotation Xrotation Yrotation
                                        End Site
                                        {
                                            OFFSET  -2.273050   0.000000   0.000000
                                        }
                                    }
                                }
                            }
                            JOINT RightFinger2
                            {
                                OFFSET  -8.364480   0.000000   1.078090
                                CHANNELS 3 Zrotation Xrotation Yrotation
                                JOINT RightFinger21
                                {
                                    OFFSET  -5.111610   0.000000   0.000000
                                    CHANNELS 3 Zrotation Xrotation Yrotation
                                    JOINT RightFinger22
                                    {
                                        OFFSET  -2.788160   0.000000   0.000000
                                        CHANNELS 3 Zrotation Xrotation Yrotation
                                        End Site
                                        {
                                            OFFSET  -2.727660   0.000000   0.000000
                                        }
                                    }
                                }
                            }
                            JOINT RightFinger3
                            {
                                OFFSET  -7.899780   0.000000  -1.078090
                                CHANNELS 3 Zrotation Xrotation Yrotation
                                JOINT RightFinger31
                                {
                                    OFFSET  -4.646920   0.000000   0.000000
                                    CHANNELS 3 Zrotation Xrotation Yrotation
                                    JOINT RightFinger32
                                    {
                                        OFFSET  -2.323470   0.000000   0.000000
                                        CHANNELS 3 Zrotation Xrotation Yrotation
                                        End Site
                                        {
                                            OFFSET  -2.273050   0.000000   0.000000
                                        }
                                    }
                                }
                            }
                            JOINT RightFinger4
                            {
                                OFFSET  -7.435090   0.000000  -3.252850
                                CHANNELS 3 Zrotation Xrotation Yrotation
                                JOINT RightFinger41
                                {
                                    OFFSET  -3.717550   0.000000   0.000000
                                    CHANNELS 3 Zrotation Xrotation Yrotation
                                    JOINT RightFinger42
                                    {
                                        OFFSET  -1.858770   0.000000   0.000000
                                        CHANNELS 3 Zrotation Xrotation Yrotation
                                        End Site
                                        {
                                            OFFSET  -1.818440   0.000000   0.000000
                                        }
                                    }
                                }
                            }
                        }
                    }
                }
            }
        }
    }
    JOINT LeftHip
    {
        OFFSET   9.783010   0.000000   0.000000
        CHANNELS 3 Zrotation Xrotation Yrotation
        JOINT LeftKnee
        {
            OFFSET   0.000070 -41.789100   0.000028
            CHANNELS 3 Zrotation Xrotation Yrotation
            JOINT LeftAnkle
            {
                OFFSET   0.000087 -41.133200  -0.000100
                CHANNELS 3 Zrotation Xrotation Yrotation
                JOINT LeftToe
                {
                    OFFSET   0.000000  -6.358960  14.674500
                    CHANNELS 3 Zrotation Xrotation Yrotation
                    End Site
                    {
                        OFFSET   0.000000   0.000000   3.913200
                    }
                }
            }
        }
    }
    JOINT RightHip
    {
        OFFSET  -9.783020   0.000000   0.000000
        CHANNELS 3 Zrotation Xrotation Yrotation
        JOINT RightKnee
        {
            OFFSET   0.000044 -41.789100  -0.000870
            CHANNELS 3 Zrotation Xrotation Yrotation
            JOINT RightAnkle
            {
                OFFSET  -0.000090 -41.133200  -0.000245
                CHANNELS 3 Zrotation Xrotation Yrotation
                JOINT RightToe
                {
                    OFFSET   0.000000  -6.358960  14.674500
                    CHANNELS 3 Zrotation Xrotation Yrotation
                    End Site
                    {
                        OFFSET   0.000000   0.000000   3.913200
                    }
                }
            }
        }
    }
}
MOTION
Frames: 4
Frame Time:   0.016667
 -1.898570  89.312200   2.207180   0.103961 -10.826400   1.002980   1.401820   7.440640  -1.068430   2.982820  14.851100  -2.351990  -2.769590   2.790170   0.135250  -4.576290   5.616400  -5.266400  -5.227710   1.140320  10.060900 -77.654700  -0.137825 -37.856600  -2.281590 -20.847900 -89.503600  29.120700 -63.974900   7.944550  38.676400  23.822100 -60.554700 -23.315600   0.005577   0.002369  -6.657780   0.004180  -0.003814 -20.971500  -0.761643   1.988890 -17.168900   0.004131  -0.004830 -12.018300   0.003812   0.000714 -27.217600  -4.289370   8.273760 -29.342300   0.006935   0.002321 -19.542000   0.005384   0.003901 -21.851900  -4.134180  10.199500 -22.221200   0.001149  -0.003719 -14.799300  -0.003100   0.006378 -23.198700  -8.891300  19.841300 -37.136400  -0.000342   0.001463 -24.732900   0.003685  -0.001374   5.725290   2.503790   9.188300  79.390900 -11.925300  30.621200  -8.614420 -22.637400  70.616200 -81.094000 -66.264800 -43.040100 -42.736900  32.566100  72.285600  -3.962220   0.000082  -0.002158  -6.981110  -0.001708   0.001027  18.980600   0.363572   1.053370  15.532300   0.005775   0.002550  10.872600   0.001456   0.000000  20.055400  -3.785770 -10.250800  20.395100   0.005261   0.000950  13.583100   0.002556   0.000236  18.229200  -3.971720 -11.876600  18.642500   0.001792  -0.000788  12.415900   0.001777   0.003879  19.895400  -4.319550 -11.757900  30.510800   0.001359  -0.001647  20.320200   0.000717  -0.002101   3.284700  13.017500  -0.534988   0.315417   2.134760  12.302600  -4.394740  -3.898230  -0.887624   0.000000   0.000000   0.000000  -1.695030  14.815400  -4.341410   1.158170   0.593322 -11.811500  -0.255657  -3.871420  -2.069230   0.000000   0.000000  -0.000000
 -1.894570  89.312200   2.207450   0.111815 -10.838900   1.037180   1.372130   7.415110  -1.098230   2.925880  14.800000  -2.407530  -2.653470   3.042910   0.141101  -4.388450   6.128230  -7.192110  -5.195340   1.146500  10.194000 -78.118100  -0.231496 -37.492700  -2.096510 -20.420900 -88.997800  29.823300 -64.296100   8.976980  38.695200  23.590700 -59.856700 -23.393300   0.005600   0.002370  -6.696640   0.004184  -0.003816 -20.805400  -0.936128   2.463600 -17.039500   0.004121  -0.004831 -11.927700   0.003803   0.000712 -27.130800  -4.299860   8.324230 -28.931300   0.006889   0.002215 -19.268300   0.005447   0.003832 -21.659500  -4.285380  10.659800 -22.060400   0.001146  -0.003724 -14.692300  -0.003141   0.006366 -22.942500  -9.051020  20.393800 -36.863200  -0.000323   0.001470 -24.550900   0.003741  -0.001368   5.670860   2.507570   9.248200  78.953200 -11.539500  30.945200  -8.476540 -23.325800  70.920000 -80.715800 -66.329000 -42.706700 -42.469800  32.544500  72.399100  -3.971290   0.000103  -0.002117  -6.985640  -0.001705   0.001083  19.068600   0.363523   1.050780  15.604100   0.005830   0.002580  10.922900   0.001484   0.000000  20.056000  -3.785600 -10.250900  20.395700   0.005295   0.000988  13.583500   0.002592   0.000238  18.182900  -3.963960 -11.885500  18.595800   0.001789  -0.000746  12.384800   0.001777   0.003858  19.959900  -4.335430 -11.757500  30.609900   0.001356  -0.001625  20.386200   0.000725  -0.002101   3.285470  13.026400  -0.525473   0.318536   2.138110  12.280800  -4.397120  -3.900300  -0.907848  -0.000000   0.000000   0.000000  -1.689350  14.830200  -4.323550   1.154350   0.599868 -11.838800  -0.258195  -3.881970  -2.095360  -0.000000   0.000000   0.000000
 -1.885350  89.312200   2.207880   0.118442 -10.856000   1.062370   1.336220   7.383000  -1.135760   2.857130  14.735600  -2.477680  -2.521890   3.311890   0.144976  -4.180870   6.675810  -8.941040  -5.154570   1.214370  10.345800 -78.721800  -0.373837 -37.022900  -1.919600 -19.847700 -88.429800  30.747200 -64.845800  10.450800  38.825700  23.512700 -59.550800 -23.289100   0.005615   0.002446  -6.644560   0.004194  -0.003814 -20.649000  -0.996466   2.644580 -16.913800   0.004108  -0.004830 -11.839700   0.003789   0.000716 -27.077900  -4.305890   8.354650 -28.687000   0.006848   0.002106 -19.105600   0.005501   0.003768 -21.512000  -4.343650  10.874700 -21.925800   0.001137  -0.003730 -14.602600  -0.003181   0.006373 -22.799500  -9.142650  20.720900 -36.711500  -0.000293   0.001473 -24.449800   0.003796  -0.000494   5.609230   2.553190   9.314980  78.475000 -11.111500  31.354800  -8.340300 -24.043000  71.313400 -80.167800 -66.362800 -42.172600 -42.294700  32.566200  72.564800  -4.007190   0.000124  -0.002072  -7.003590  -0.001718   0.001142  19.148700   0.374077   1.077760  15.669800   0.005883   0.002604  10.968900   0.001515  -0.000000  20.017600  -3.781290 -10.260600  20.357300   0.005335   0.001037  13.557900   0.002629   0.000239  18.102600  -3.950560 -11.901300  18.514700   0.001775  -0.000717  12.330800   0.001779   0.003844  20.004500  -4.347660 -11.763600  30.678400   0.001353  -0.001601  20.431900   0.000735  -0.002099   3.284190  13.042000  -0.521823   0.322083   2.139510  12.263400  -4.398320  -3.901460  -0.920018  -0.000000   0.000000  -0.000000  -1.692880  14.842400  -4.308480   1.153780   0.619369 -11.856800  -0.259415  -3.895520  -2.114400   0.000000   0.000000  -0.000000
 -1.873150  89.312500   2.208190   0.123164 -10.878600   1.076370   1.299110   7.351850  -1.177180   2.786460  14.673100  -2.555620  -2.382540   3.576750   0.147175  -3.957340   7.215050 -10.544300  -5.140600   1.325460  10.493800 -79.397800  -0.550980 -36.459700  -1.678070 -19.207800 -87.777800  31.850900 -65.447500  12.149900  38.919700  23.500800 -59.471600 -23.087400   0.005626   0.002522  -6.543710   0.004200  -0.003811 -20.520500  -1.005080   2.673830 -16.808800   0.004094  -0.004829 -11.766200   0.003776   0.000722 -27.056600  -4.308150   8.366740 -28.591500   0.006802   0.002000 -19.041900   0.005555   0.003700 -21.441200  -4.354090  10.935400 -21.858200   0.001124  -0.003735 -14.557600  -0.003223   0.006382 -22.745300  -9.188440  20.850100 -36.659100  -0.000262   0.001477 -24.414900   0.003853   0.000685   5.539540   2.618150   9.378950  77.976500 -10.679000  31.823500  -8.196910 -24.745500  71.801400 -79.509900 -66.373000 -41.511300 -42.134100  32.610700  72.753300  -4.058680   0.000146  -0.002027  -7.029340  -0.001731   0.001204  19.215400   0.389915   1.118250  15.724700   0.005937   0.002629  11.007300   0.001546  -0.000000  19.943800  -3.773190 -10.279300  20.283400   0.005377   0.001090  13.508700   0.002667   0.000239  17.998800  -3.933190 -11.921700  18.409800   0.001761  -0.000687  12.260900   0.001781   0.003829  20.019800  -4.356540 -11.776000  30.704100   0.001349  -0.001579  20.449000   0.000746  -0.002098   3.280370  13.062000  -0.520826   0.325410   2.142160  12.255000  -4.398710  -3.903980  -0.924423   0.000000   0.000000   0.000000  -1.694680  14.858600  -4.301210   1.152790   0.640015 -11.868900  -0.258309  -3.908530  -2.122870  -0.000000   0.000000  -0.000000
